<?xml version="1.0" encoding="UTF-8" standalone="no"?>
<!-- Created with Inkscape (http://www.inkscape.org/) -->

<svg
   width="204.29591mm"
   height="186.29688mm"
   viewBox="0 0 204.29591 186.29687"
   version="1.1"
   id="svg321"
   xmlns="http://www.w3.org/2000/svg"
   xmlns:svg="http://www.w3.org/2000/svg">
  <defs
     id="defs318" />
  <g
     id="layer1"
     transform="translate(-1.6986178,-34.714305)">
    <path
       style="fill:#ffffff;stroke-width:0.264583"
       d="m 152.66958,220.96758 -11.73018,-0.13229 2.86664,-2.28208 c 18.04322,-14.36386 25.76255,-31.1515 20.70776,-45.03427 -2.94272,-8.08206 -10.83473,-15.96324 -22.0966,-22.06628 -7.79255,-4.22294 -14.37408,-6.86455 -33.57993,-13.47788 -11.970057,-4.12176 -18.928917,-7.44523 -21.555397,-10.29463 -2.17673,-2.36147 -2.40794,-4.23625 -0.89531,-7.25982 2.66017,-5.31738 12.57577,-12.49585 22.715287,-16.44488 l 2.64583,-1.03047 -1.98437,0.15986 c -2.6658,0.21475 -10.469737,1.53567 -13.241457,2.24128 -14.61166,3.7198 -26.79876,9.15981 -33.25961,14.84622 -6.85322,6.03176 -7.7104,12.73093 -2.38754,18.65938 4.15233,4.62474 8.34185,7.37552 23.22402,15.24856 4.47645,2.36815 10.39283,5.79818 12.83229,7.43952 1.30969,0.8812 3.583417,2.79599 5.052737,4.25509 2.20724,2.19189 2.84905,3.02072 3.69335,4.76957 0.92305,1.91196 1.03216,2.36264 1.12815,4.66009 0.19941,4.77251 -1.65433,8.73902 -6.57215,14.06263 -8.116497,8.78621 -26.297587,19.34105 -51.720827,30.02599 -4.03853,1.69732 -6.2032,2.03498 -8.18753,1.27716 -1.24296,-0.47469 -2.96962,-1.98213 -3.51804,-3.07137 -0.18067,-0.35883 -8.15348,-24.10773 -17.71735,-52.77534 C 2.7217127,115.68178 1.7003927,112.51192 1.6986227,110.76861 c -0.002,-2.15813 0.60285,-3.56262 2.1761901,-5.05159 0.53967,-0.51073 5.02934,-3.85732 9.9770402,-7.436886 4.94771,-3.579556 12.61148,-9.139636 17.03061,-12.355736 8.25033,-6.004321 12.99052,-9.439581 15.77772,-11.434264 0.87313,-0.624859 8.49313,-6.173989 16.93334,-12.331398 8.4402,-6.157412 16.40696,-11.967098 17.70389,-12.910412 1.29694,-0.943316 3.02334,-2.200981 3.83646,-2.794815 11.14651,-8.14048 15.287947,-11.047065 16.197737,-11.368058 1.26774,-0.447283 3.38551,-0.497125 4.77107,-0.112286 0.53326,0.148116 2.63378,1.486905 4.6678,2.975089 2.03403,1.48818 6.00303,4.363238 8.82001,6.389012 2.81697,2.025774 7.08631,5.133313 9.4874,6.905643 2.40109,1.772333 5.19906,3.816757 6.21771,4.543168 1.94664,1.388179 16.01965,11.617772 20.76979,15.097442 5.22131,3.824819 22.35193,16.295759 25.53229,18.587279 9.98052,7.191176 21.28498,15.514052 22.04908,16.233562 2.38488,2.24569 2.9092,4.72391 1.77117,8.37155 -3.17316,10.17065 -33.90958,101.95926 -34.5868,103.28707 -0.95988,1.88199 -2.9306,3.22965 -5.20461,3.55914 -0.67471,0.0978 -6.50534,0.11822 -12.95694,0.0455 z"
       id="path302" />
  </g>
</svg>
